<svg id="Layer_1" data-name="Layer 1" xmlns="http://www.w3.org/2000/svg" viewBox="0 0 260 260"><defs><style>.cls-1{fill:#231f20;}</style></defs><title>Artboard 1</title><path class="cls-1" d="M33.77,234.29a77.19,77.19,0,0,1,4.61-22.95C41,204.27,44.6,198.64,49,194.6a80.18,80.18,0,0,1,15.89-11.93,62.83,62.83,0,0,1,10-4.13l2.6-.92c23.15-5.62,26.24-23.18,26.24-34.15,0-3.58.24-17.22.49-31.65.25-14,.3-38.73.31-46a3.73,3.73,0,0,0-2-3.22l-5.11-2.94h0l.11-27.19a1.58,1.58,0,0,1,1.44-1.5,243.81,243.81,0,0,1,31.38-1.65h.28a248.73,248.73,0,0,1,31.64,1.65,1.58,1.58,0,0,1,1.44,1.5l.11,27.19h0l-5.12,2.94a3.72,3.72,0,0,0-2,3.22c0,7.31.06,32,.3,46,.26,14.43.5,28.07.5,31.65,0,11,3.09,28.53,26.24,34.15l2.6.92a62.73,62.73,0,0,1,9.95,4.13,79.92,79.92,0,0,1,15.9,11.93c4.37,4,7.93,9.67,10.59,16.74a76.64,76.64,0,0,1,4.6,22.95c0,8.31,0,16.91,0,25.71h14.16c0-16.08,0-25.8,0-25.8a87.64,87.64,0,0,0-5.35-26.95c-2.84-7.55-7.19-15.38-13.85-21.54-7.62-7.05-13.65-11.21-18.78-14-5.6-3-10.15-4.35-14.56-5.94-4.89-1.76-5.16-6.88-8.63-10.72-5-5.58-8.71-3-8.71-11.6,0-8-1.14-63.63-1.09-71.46,0-.59-.82-2.24,2.71-3L176.87,68a1.74,1.74,0,0,0,1-1.54c0-1.13.05-3.62.08-6a2.12,2.12,0,0,0-1.15-1.94c.55-.37,1-.12,1.11-2.31l-.13-30.54s1.59-4.16-4.91-5.72c-11.46-2.75-29.36-3.34-42.31-3.34s-30.85.59-42.31,3.34c-6.5,1.56-4.91,5.72-4.91,5.72l-.14,30.54c.15,2.19.57,1.94,1.12,2.31a2.1,2.1,0,0,0-1.15,1.94c0,2.41.07,4.9.08,6a1.74,1.74,0,0,0,1,1.54L87.88,69c3.53.75,2.7,2.4,2.7,3,.06,7.83-1.08,63.43-1.08,71.46,0,8.64-3.68,6-8.71,11.6-3.47,3.84-3.74,9-8.63,10.72-4.41,1.59-9,2.93-14.56,5.94-5.14,2.77-11.16,6.93-18.78,14-6.66,6.16-11,14-13.85,21.54a87.49,87.49,0,0,0-5.36,26.95s0,9.72,0,25.8H33.75C33.76,251.2,33.76,242.6,33.77,234.29Z"/></svg>