<?xml version="1.0" encoding="utf-8"?>
<!-- Generator: Adobe Illustrator 22.1.0, SVG Export Plug-In . SVG Version: 6.00 Build 0)  -->
<svg version="1.1" id="Capa_1" xmlns="http://www.w3.org/2000/svg" xmlns:xlink="http://www.w3.org/1999/xlink" x="0px" y="0px"
	 viewBox="0 0 157.6 145.2" style="enable-background:new 0 0 157.6 145.2;" xml:space="preserve">
<style type="text/css">
	.st0{fill:#DA0080;}
	.st1{fill:#FFFFFF;}
</style>
<g id="f1LYOU.tif_6_">
	<g>
		<path class="st0" d="M108.6,0c1.4,0,2.9,0,4.3,0c0.3,0,0.5,0.1,0.8,0.1c3.3,0.2,6.5,0.7,9.6,1.6c10,2.9,18.2,8.4,24.6,16.6
			c5.2,6.7,8.3,14.4,9.3,22.8c0.2,1.3,0.3,2.6,0.4,3.8c0,1.2,0,2.5,0,3.7c0,0.3-0.1,0.6-0.1,0.8c-0.2,3.9-0.9,7.7-2.1,11.4
			c-2.5,7.8-6.8,14.3-12.6,20.1c-21.3,21.2-42.5,42.5-63.7,63.7c-0.6,0.6-0.6,0.6-1.3,0c-8.2-8.2-16.4-16.4-24.7-24.7
			c-13.4-13.4-26.9-26.6-40-40.1C2.4,68.8-1.7,55.3,0.6,39.9c1.7-11.1,7-20.5,15.5-27.8C26.8,3,39.1-0.6,53,1.1
			c7.3,0.9,14,3.5,20,7.6c1.9,1.3,3.6,2.7,5.5,4.1c0.1-0.1,0.2-0.2,0.3-0.3c2.9-2.7,6.1-5,9.6-6.9c5.2-2.8,10.6-4.5,16.5-5.2
			C106.1,0.2,107.4,0.1,108.6,0z"/>
	</g>
</g>
<path class="st1" d="M73.6,37.3v-4.4c0,0,1.6-1.1,5-1.1s5.2,1.2,5.2,1.2v4.2c0,0-0.4,0.5-0.7,0.6c0,8.6,0,8.8,0,8.8s0.2,0.4,0.5,0.7
	s0.7,0.7,0.8,1.3c0.1,0.3,7.2,2.4,7,8.9c0,40.6,0,40.6,0,40.6s0,2.9-2.4,3c-5.2,0.7-19.8,0.3-21.5-0.4c-0.8-0.3-1.3-1.2-1.4-3.8
	c0.2-40.1,0.2-40.2,0.2-40.2s-0.1-4,2.9-5.7c2.6-1.7,3.7-1.7,3.9-2.4c0.2-0.7,1.2-1.4,1.1-2.2c0-8.6,0-8.6,0-8.6
	S73.8,37.6,73.6,37.3z"/>
</svg>
