<svg id="Capa_1" data-name="Capa 1" xmlns="http://www.w3.org/2000/svg" xmlns:xlink="http://www.w3.org/1999/xlink" viewBox="0 0 157.57 145.23"><defs><style>.cls-1{fill:url(#Degradado_sin_nombre_14);}.cls-2{fill:#fff;}</style><linearGradient id="Degradado_sin_nombre_14" x1="78.78" y1="6.51" x2="78.78" y2="150.51" gradientUnits="userSpaceOnUse"><stop offset="0" stop-color="#ff34cf"/><stop offset="1" stop-color="#009cde"/></linearGradient></defs><title>2</title><g id="f1LYOU.tif"><path class="cls-1" d="M108.58,0h4.33c.26,0,.51.11.77.13a43.48,43.48,0,0,1,9.62,1.61,46.28,46.28,0,0,1,24.55,16.62,45.77,45.77,0,0,1,9.33,22.85c.15,1.28.26,2.56.39,3.84v3.68a8.09,8.09,0,0,0-.12.84A46,46,0,0,1,155.37,61a48.86,48.86,0,0,1-12.56,20.09q-31.9,31.8-63.71,63.7c-.64.64-.64.64-1.27,0L53.18,120.1C39.83,106.73,26.33,93.52,13.18,80,2.37,68.82-1.7,55.26.64,39.93A44.72,44.72,0,0,1,16.16,12.1C26.77,3,39.14-.63,53,1.06a44.59,44.59,0,0,1,20,7.62c1.87,1.28,3.63,2.73,5.47,4.13l.33-.29a47.15,47.15,0,0,1,9.63-6.9A46,46,0,0,1,104.93.39Z" transform="translate(0)"/></g><path class="cls-2" d="M73.57,37.31V33a9.7,9.7,0,0,1,5-1.07,9.68,9.68,0,0,1,5.17,1.22v4.2s-.42.55-.74.62c0,8.64,0,8.76,0,8.76a2,2,0,0,0,.55.7,1.9,1.9,0,0,1,.8,1.32c.12.25,7.17,2.38,7,8.93V98.27s0,2.94-2.42,3c-5.17.71-19.83.32-21.52-.35-.77-.32-1.31-1.21-1.38-3.8.19-40.07.19-40.23.19-40.23s-.06-4,2.91-5.75c2.56-1.66,3.7-1.71,3.93-2.44s1.15-1.36,1.08-2.22V37.86A1.82,1.82,0,0,1,73.57,37.31Z" transform="translate(0)"/></svg>