<?xml version="1.0" encoding="UTF-8"?>
<!-- Generator: Adobe Illustrator 19.0.0, SVG Export Plug-In . SVG Version: 6.00 Build 0)  -->
<svg version="1.1" id="Capa_1" xmlns="http://www.w3.org/2000/svg" xmlns:xlink="http://www.w3.org/1999/xlink" x="0px" y="0px" viewBox="0 0 641.1 110.3" style="enable-background:new 0 0 641.1 110.3;" xml:space="preserve">
<style type="text/css">
	.st0{fill-rule:evenodd;clip-rule:evenodd;fill:#6CBE45;}
	.st1{fill-rule:evenodd;clip-rule:evenodd;fill:#DAE24A;}
	.st2{fill-rule:evenodd;clip-rule:evenodd;fill:#377539;}
</style>
<g>
	<polygon class="st0" points="211.5,13.3 136.9,13.3 136.9,35.5 160.4,35.5 160.4,103.2 188.1,103.2 188.1,35.5 211.5,35.5  "/>
	<polygon class="st0" points="305.1,35.5 328.5,35.5 328.5,103.2 356.2,103.2 356.2,35.5 379.7,35.5 379.7,13.3 305.1,13.3  "/>
	<polygon class="st0" points="386.4,35.5 409.8,35.5 409.8,103.2 437.5,103.2 437.5,35.5 460.9,35.5 460.9,13.3 386.4,13.3  "/>
	<path class="st0" d="M525.5,68.2c0,5-1.4,8.9-4.1,11.6c-2.7,2.7-6.4,4-11.2,4c-4.8,0-8.6-1.4-11.3-4.1c-2.7-2.8-4-6.6-4-11.5V13.3   h-27.6v53.6c0,4.4,0.9,9.5,2.6,15.2c1.1,3.6,3,7,5.8,10.4c2.9,3.4,6.1,5.9,9.6,7.8c3.5,1.8,7.8,3,12.9,3.6c5.2,0.6,10,0.9,14.3,0.9   c7.5,0,14-1,19.4-3c3.9-1.4,7.6-3.9,11.1-7.4c3.5-3.6,6.1-7.7,7.7-12.4c1.7-4.8,2.5-9.8,2.5-15.1V13.3h-27.6V68.2z"/>
	<path class="st0" d="M637.4,60.6c-2.4-4-6.2-7.3-11.4-10c-5.2-2.7-13.9-5.4-26-8c-4.9-1-8-2.1-9.3-3.3c-1.4-1.1-2-2.4-2-3.9   c0-2,0.8-3.6,2.4-5c1.7-1.4,4.1-2.1,7.3-2.1c3.9,0,6.9,0.9,9.2,2.8c2.2,1.9,3.7,4.8,4.4,8.8l26.1-1.5c-1.2-9.3-4.7-16.1-10.8-20.4   c-6-4.3-14.7-6.4-26.2-6.4c-9.3,0-16.7,1.2-22.1,3.6c-5.3,2.3-9.3,5.6-12,9.7c-2.6,4.1-4,8.4-4,13.1c0,7,2.6,12.8,7.8,17.4   c5.2,4.5,13.8,8.2,26,10.9c7.4,1.6,12.1,3.4,14.2,5.2c2,1.8,3,3.9,3,6.2c0,2.5-1.1,4.6-3.2,6.5c-2.1,1.8-5.2,2.8-9.1,2.8   c-5.3,0-9.4-1.8-12.2-5.5c-1.8-2.2-2.9-5.5-3.5-9.8l-26.4,1.7c0.8,9.1,4.1,16.6,10,22.5c5.9,5.9,16.4,8.8,31.7,8.8   c8.7,0,15.9-1.2,21.6-3.7c5.7-2.5,10.1-6.2,13.3-11.1c3.2-4.9,4.8-10.2,4.8-15.9C641.1,69.1,639.8,64.6,637.4,60.6z"/>
	<path class="st0" d="M258.2,82.9c-13,0-23.6-10.6-23.6-23.6c0-13.1,10.5-23.7,23.6-23.7c13,0,23.5,10.6,23.5,23.7   C281.7,72.3,271.2,82.9,258.2,82.9L258.2,82.9z M258.2,12c-26,0-47.1,21.2-47.1,47.3c0,26.1,21.1,47.3,47.1,47.3   c26,0,47.1-21.2,47.1-47.3C305.3,33.2,284.2,12,258.2,12z"/>
	<path class="st0" d="M39.8,15.3C39.8,6.9,46.7,0,55.1,0c8.5,0,15.3,6.9,15.3,15.3c0,8.4-6.9,15.3-15.3,15.3   C46.7,30.6,39.8,23.8,39.8,15.3z"/>
	<path class="st1" d="M6.1,19.7c0-7.5,6.1-13.6,13.6-13.6c7.5,0,13.6,6.1,13.6,13.6c0,7.5-6.1,13.6-13.6,13.6   C12.2,33.3,6.1,27.3,6.1,19.7z"/>
	<path class="st1" d="M76.9,19.7c0-7.5,6.1-13.6,13.6-13.6c7.5,0,13.6,6.1,13.6,13.6c0,7.5-6.1,13.6-13.6,13.6   C83,33.4,76.9,27.3,76.9,19.7z"/>
	<path class="st1" d="M76.9,90.5c0-7.5,6.1-13.6,13.6-13.6c7.5,0,13.6,6.1,13.6,13.6c0,7.5-6.1,13.6-13.6,13.6   C83,104.1,76.9,98,76.9,90.5z"/>
	<path class="st1" d="M6.1,90.5c0-7.5,6.1-13.6,13.6-13.6c7.5,0,13.6,6.1,13.6,13.6c0,7.5-6.1,13.6-13.6,13.6   C12.2,104.1,6.1,98,6.1,90.5z"/>
	<path class="st2" d="M38.1,55.1c0-9.4,7.6-17,17-17c9.4,0,17,7.6,17,17c0,9.4-7.6,17-17,17C45.7,72.1,38.1,64.5,38.1,55.1z"/>
	<path class="st0" d="M39.8,94.9c0-8.5,6.9-15.3,15.3-15.3c8.5,0,15.3,6.9,15.3,15.3c0,8.5-6.9,15.3-15.3,15.3   C46.7,110.3,39.8,103.4,39.8,94.9z"/>
	<path class="st0" d="M79.6,55.1c0-8.5,6.9-15.3,15.3-15.3c8.4,0,15.3,6.9,15.3,15.3c0,8.5-6.9,15.3-15.3,15.3   C86.5,70.4,79.6,63.6,79.6,55.1z"/>
	<path class="st0" d="M0,55.1c0-8.5,6.9-15.3,15.3-15.3c8.5,0,15.3,6.9,15.3,15.3c0,8.5-6.9,15.3-15.3,15.3C6.9,70.4,0,63.6,0,55.1z   "/>
</g>
</svg>